<?xml version="1.0" encoding="UTF-8"?>
<svg xmlns="http://www.w3.org/2000/svg" xmlns:xlink="http://www.w3.org/1999/xlink" width="893.42pt" height="434.79pt" viewBox="0 0 893.42 434.79" version="1.1">
<defs>
<clipPath id="clip1">
  <path d="M 480 401 L 502 401 L 502 434.789063 L 480 434.789063 Z M 480 401 "/>
</clipPath>
<clipPath id="clip2">
  <path d="M 669 24 L 893.421875 24 L 893.421875 374 L 669 374 Z M 669 24 "/>
</clipPath>
</defs>
<g id="surface1">
<path style=" stroke:none;fill-rule:nonzero;fill:rgb(63.528442%,58.430481%,54.116821%);fill-opacity:1;" d="M 169.367188 -0.00390625 C 169.367188 -0.00390625 119.699219 85.300781 109.746094 102.390625 C 99.882813 85.261719 50.773438 -0.00390625 50.773438 -0.00390625 L 0 -0.00390625 C 0 -0.00390625 82.542969 143.09375 84.371094 146.265625 C 84.371094 149.875 84.371094 251.40625 84.371094 251.40625 L 128.132813 251.40625 C 128.132813 251.40625 128.132813 149.875 128.132813 146.265625 C 129.964844 143.09375 212.503906 -0.00390625 212.503906 -0.00390625 L 169.367188 -0.00390625 "/>
<path style=" stroke:none;fill-rule:nonzero;fill:rgb(63.528442%,58.430481%,54.116821%);fill-opacity:1;" d="M 281.027344 193.496094 L 281.019531 193.511719 C 273.679688 207.578125 261.824219 215.011719 246.734375 215.011719 C 233.472656 215.011719 220.785156 207.71875 214.414063 196.425781 C 208.539063 185.738281 205.28125 169.851563 205.28125 151.757813 C 205.28125 142.269531 206.304688 124.355469 213.160156 111.003906 C 219.6875 97.957031 232.539063 89.890625 246.734375 89.890625 C 259.5625 89.890625 271.898438 96.625 278.929688 107.464844 C 285.703125 118.148438 288.878906 132.242188 288.878906 151.757813 C 288.878906 164.230469 287.984375 180.242188 281.027344 193.496094 Z M 248.8125 53.742188 C 221.738281 53.742188 199.050781 64.042969 183.203125 83.535156 C 168.996094 101.011719 161.175781 125.238281 161.175781 151.757813 C 161.175781 201.410156 186.882813 251.507813 244.3125 251.507813 C 271.546875 251.507813 294.457031 241.007813 310.570313 221.144531 C 325.023438 203.328125 332.984375 178.808594 332.984375 152.105469 C 332.984375 104.730469 306.644531 53.742188 248.8125 53.742188 "/>
<path style=" stroke:none;fill-rule:nonzero;fill:rgb(63.528442%,58.430481%,54.116821%);fill-opacity:1;" d="M 455.683594 58.238281 L 455.683594 158.679688 C 455.683594 176.386719 452.117188 188.3125 443.761719 198.554688 C 435.507813 208.640625 424.816406 213.976563 412.847656 213.976563 C 404.273438 213.976563 394.519531 208.300781 390.640625 201.058594 L 390.589844 200.960938 L 390.53125 200.863281 C 386.097656 193.179688 385.585938 180.8125 385.585938 172.179688 L 385.585938 58.238281 L 344.589844 58.238281 L 344.589844 172.179688 C 344.589844 189.863281 346.34375 212.324219 359.992188 229.1875 C 371.816406 243.59375 389.714844 251.507813 410.425781 251.507813 C 428.554688 251.507813 445.839844 243.132813 458.105469 229.394531 C 458.105469 234.574219 458.105469 249.664063 458.105469 249.664063 L 496.675781 249.664063 L 496.675781 58.238281 L 455.683594 58.238281 "/>
<path style=" stroke:none;fill-rule:nonzero;fill:rgb(63.528442%,58.430481%,54.116821%);fill-opacity:1;" d="M 557.578125 75.503906 C 557.578125 71.070313 557.578125 58.238281 557.578125 58.238281 L 517.972656 58.238281 L 517.972656 249.246094 L 558.964844 249.246094 L 558.964844 148.992188 C 558.964844 134.386719 560.449219 119.074219 571.207031 106.03125 C 579.410156 96.3125 590.414063 90.929688 602.144531 90.929688 C 611.863281 90.929688 621.984375 96.167969 626.214844 103.386719 C 630.140625 110.191406 630.117188 121.46875 630.101563 130.527344 L 630.101563 248.046875 L 671.09375 248.046875 L 671.09375 143.800781 L 671.101563 140.351563 C 671.144531 122.394531 671.203125 100.046875 661.777344 84.460938 C 649.820313 64.652344 629.992188 53.742188 605.953125 53.742188 C 587.101563 53.742188 570.089844 61.625 557.578125 75.503906 "/>
<path style=" stroke:none;fill-rule:nonzero;fill:rgb(99.215698%,73.332214%,19.215393%);fill-opacity:1;" d="M 774.449219 373.683594 L 84.371094 373.683594 L 84.371094 248.113281 L 715.320313 248.113281 L 702.691406 333.90625 L 774.449219 373.683594 "/>
<path style=" stroke:none;fill-rule:nonzero;fill:rgb(13.699341%,12.199402%,12.5%);fill-opacity:1;" d="M 108.503906 411.320313 L 117.722656 414.109375 C 117.101563 416.699219 116.125 418.863281 114.792969 420.597656 C 113.460938 422.335938 111.804688 423.644531 109.828125 424.527344 C 107.851563 425.410156 105.335938 425.851563 102.285156 425.851563 C 98.578125 425.851563 95.550781 425.3125 93.203125 424.238281 C 90.855469 423.160156 88.828125 421.265625 87.125 418.554688 C 85.417969 415.84375 84.566406 412.375 84.566406 408.144531 C 84.566406 402.507813 86.066406 398.175781 89.066406 395.144531 C 92.070313 392.117188 96.3125 390.601563 101.804688 390.601563 C 106.097656 390.601563 109.472656 391.46875 111.933594 393.203125 C 114.390625 394.9375 116.214844 397.601563 117.410156 401.191406 L 108.128906 403.257813 C 107.804688 402.222656 107.460938 401.464844 107.105469 400.984375 C 106.515625 400.179688 105.792969 399.5625 104.9375 399.128906 C 104.082031 398.695313 103.128906 398.476563 102.070313 398.476563 C 99.679688 398.476563 97.847656 399.4375 96.574219 401.359375 C 95.609375 402.785156 95.128906 405.023438 95.128906 408.074219 C 95.128906 411.851563 95.703125 414.441406 96.851563 415.84375 C 97.996094 417.246094 99.609375 417.945313 101.6875 417.945313 C 103.703125 417.945313 105.226563 417.382813 106.257813 416.25 C 107.289063 415.117188 108.039063 413.476563 108.503906 411.320313 "/>
<path style=" stroke:none;fill-rule:nonzero;fill:rgb(13.699341%,12.199402%,12.5%);fill-opacity:1;" d="M 121.804688 400.570313 L 130.652344 400.570313 L 130.652344 404.613281 C 131.507813 402.859375 132.386719 401.65625 133.292969 400.996094 C 134.203125 400.339844 135.324219 400.007813 136.65625 400.007813 C 138.054688 400.007813 139.582031 400.445313 141.242188 401.316406 L 138.308594 408.050781 C 137.191406 407.585938 136.308594 407.351563 135.65625 407.351563 C 134.414063 407.351563 133.453125 407.863281 132.769531 408.886719 C 131.792969 410.328125 131.304688 413.027344 131.304688 416.980469 L 131.304688 425.257813 L 121.804688 425.257813 L 121.804688 400.570313 "/>
<path style=" stroke:none;fill-rule:nonzero;fill:rgb(13.699341%,12.199402%,12.5%);fill-opacity:1;" d="M 160.910156 410.726563 C 160.722656 408.894531 160.234375 407.582031 159.4375 406.789063 C 158.644531 406 157.597656 405.601563 156.300781 405.601563 C 154.800781 405.601563 153.605469 406.199219 152.707031 407.398438 C 152.136719 408.140625 151.773438 409.253906 151.621094 410.726563 Z M 170.535156 415.257813 L 151.597656 415.257813 C 151.765625 416.777344 152.175781 417.910156 152.828125 418.65625 C 153.738281 419.722656 154.929688 420.257813 156.398438 420.257813 C 157.328125 420.257813 158.207031 420.027344 159.042969 419.5625 C 159.554688 419.269531 160.101563 418.75 160.691406 418.007813 L 170.003906 418.851563 C 168.578125 421.339844 166.859375 423.121094 164.847656 424.203125 C 162.835938 425.28125 159.945313 425.820313 156.183594 425.820313 C 152.917969 425.820313 150.347656 425.359375 148.472656 424.4375 C 146.601563 423.515625 145.050781 422.050781 143.816406 420.042969 C 142.585938 418.035156 141.972656 415.675781 141.972656 412.960938 C 141.972656 409.101563 143.207031 405.976563 145.675781 403.589844 C 148.144531 401.203125 151.554688 400.007813 155.90625 400.007813 C 159.433594 400.007813 162.222656 400.542969 164.265625 401.613281 C 166.308594 402.683594 167.863281 404.230469 168.933594 406.261719 C 170 408.292969 170.535156 410.933594 170.535156 414.191406 L 170.535156 415.257813 "/>
<path style=" stroke:none;fill-rule:nonzero;fill:rgb(13.699341%,12.199402%,12.5%);fill-opacity:1;" d="M 191.246094 413.539063 C 189.941406 414.007813 188.578125 414.417969 187.164063 414.773438 C 185.238281 415.285156 184.019531 415.792969 183.507813 416.289063 C 182.976563 416.800781 182.714844 417.382813 182.714844 418.035156 C 182.714844 418.777344 182.972656 419.386719 183.496094 419.863281 C 184.015625 420.335938 184.78125 420.570313 185.789063 420.570313 C 186.847656 420.570313 187.828125 420.316406 188.738281 419.804688 C 189.648438 419.292969 190.292969 418.667969 190.675781 417.929688 C 191.054688 417.191406 191.246094 416.234375 191.246094 415.054688 Z M 183.027344 408.570313 L 173.996094 407.601563 C 174.335938 406.023438 174.828125 404.78125 175.472656 403.875 C 176.113281 402.96875 177.039063 402.183594 178.25 401.519531 C 179.117188 401.039063 180.3125 400.667969 181.828125 400.402344 C 183.347656 400.140625 184.992188 400.007813 186.757813 400.007813 C 189.59375 400.007813 191.871094 400.167969 193.589844 400.484375 C 195.3125 400.804688 196.746094 401.464844 197.890625 402.472656 C 198.699219 403.171875 199.332031 404.160156 199.796875 405.4375 C 200.261719 406.71875 200.496094 407.9375 200.496094 409.101563 L 200.496094 420.003906 C 200.496094 421.167969 200.570313 422.078125 200.714844 422.738281 C 200.863281 423.394531 201.183594 424.234375 201.679688 425.257813 L 192.804688 425.257813 C 192.445313 424.625 192.214844 424.140625 192.105469 423.808594 C 191.996094 423.476563 191.886719 422.953125 191.78125 422.242188 C 190.539063 423.4375 189.308594 424.289063 188.082031 424.800781 C 186.40625 425.480469 184.460938 425.820313 182.246094 425.820313 C 179.300781 425.820313 177.0625 425.140625 175.535156 423.777344 C 174.007813 422.414063 173.246094 420.734375 173.246094 418.734375 C 173.246094 416.859375 173.796875 415.320313 174.894531 414.109375 C 175.996094 412.902344 178.027344 412.003906 180.988281 411.414063 C 184.539063 410.703125 186.84375 410.203125 187.894531 409.917969 C 188.949219 409.632813 190.066406 409.253906 191.246094 408.789063 C 191.246094 407.621094 191.003906 406.804688 190.523438 406.335938 C 190.042969 405.867188 189.195313 405.632813 187.984375 405.632813 C 186.433594 405.632813 185.269531 405.882813 184.492188 406.378906 C 183.886719 406.769531 183.398438 407.5 183.027344 408.570313 "/>
<path style=" stroke:none;fill-rule:nonzero;fill:rgb(13.699341%,12.199402%,12.5%);fill-opacity:1;" d="M 216.269531 391.195313 L 216.269531 400.570313 L 221.488281 400.570313 L 221.488281 407.507813 L 216.269531 407.507813 L 216.269531 416.257813 C 216.269531 417.308594 216.367188 418.003906 216.570313 418.34375 C 216.882813 418.871094 217.425781 419.132813 218.199219 419.132813 C 218.898438 419.132813 219.875 418.933594 221.132813 418.53125 L 221.832031 425.054688 C 219.492188 425.566406 217.308594 425.820313 215.277344 425.820313 C 212.925781 425.820313 211.191406 425.519531 210.074219 424.917969 C 208.960938 424.3125 208.136719 423.394531 207.601563 422.167969 C 207.066406 420.9375 206.800781 418.945313 206.800781 416.191406 L 206.800781 407.507813 L 203.300781 407.507813 L 203.300781 400.570313 L 206.800781 400.570313 L 206.800781 396.046875 L 216.269531 391.195313 "/>
<path style=" stroke:none;fill-rule:nonzero;fill:rgb(13.699341%,12.199402%,12.5%);fill-opacity:1;" d="M 225.886719 400.570313 L 235.355469 400.570313 L 235.355469 425.257813 L 225.886719 425.257813 Z M 225.886719 391.195313 L 235.355469 391.195313 L 235.355469 397.632813 L 225.886719 397.632813 L 225.886719 391.195313 "/>
<path style=" stroke:none;fill-rule:nonzero;fill:rgb(13.699341%,12.199402%,12.5%);fill-opacity:1;" d="M 238.074219 400.570313 L 247.917969 400.570313 L 252.71875 416.214844 L 257.6875 400.570313 L 267.230469 400.570313 L 256.742188 425.257813 L 248.347656 425.257813 L 238.074219 400.570313 "/>
<path style=" stroke:none;fill-rule:nonzero;fill:rgb(13.699341%,12.199402%,12.5%);fill-opacity:1;" d="M 286.039063 410.726563 C 285.851563 408.894531 285.363281 407.582031 284.566406 406.789063 C 283.773438 406 282.726563 405.601563 281.429688 405.601563 C 279.929688 405.601563 278.734375 406.199219 277.839844 407.398438 C 277.265625 408.140625 276.902344 409.253906 276.75 410.726563 Z M 295.664063 415.257813 L 276.726563 415.257813 C 276.894531 416.777344 277.308594 417.910156 277.957031 418.65625 C 278.867188 419.722656 280.058594 420.257813 281.527344 420.257813 C 282.457031 420.257813 283.335938 420.027344 284.171875 419.5625 C 284.683594 419.269531 285.230469 418.75 285.820313 418.007813 L 295.132813 418.851563 C 293.707031 421.339844 291.988281 423.121094 289.976563 424.203125 C 287.964844 425.28125 285.074219 425.820313 281.3125 425.820313 C 278.046875 425.820313 275.476563 425.359375 273.605469 424.4375 C 271.730469 423.515625 270.179688 422.050781 268.949219 420.042969 C 267.714844 418.035156 267.101563 415.675781 267.101563 412.960938 C 267.101563 409.101563 268.335938 405.976563 270.804688 403.589844 C 273.273438 401.203125 276.683594 400.007813 281.035156 400.007813 C 284.5625 400.007813 287.351563 400.542969 289.394531 401.613281 C 291.4375 402.683594 292.992188 404.230469 294.0625 406.261719 C 295.128906 408.292969 295.664063 410.933594 295.664063 414.191406 L 295.664063 415.257813 "/>
<path style=" stroke:none;fill-rule:nonzero;fill:rgb(13.699341%,12.199402%,12.5%);fill-opacity:1;" d="M 312.199219 425.257813 L 312.199219 392.820313 L 318.644531 392.820313 L 326.324219 415.789063 C 327.03125 417.925781 327.546875 419.527344 327.871094 420.589844 C 328.242188 419.410156 328.820313 417.675781 329.601563 415.390625 L 337.394531 392.820313 L 343.136719 392.820313 L 343.136719 425.257813 L 339.011719 425.257813 L 339.011719 398.101563 L 329.574219 425.257813 L 325.703125 425.257813 L 316.324219 397.632813 L 316.324219 425.257813 L 312.199219 425.257813 "/>
<path style=" stroke:none;fill-rule:nonzero;fill:rgb(13.699341%,12.199402%,12.5%);fill-opacity:1;" d="M 364.09375 413.476563 C 362.648438 414.066406 360.480469 414.566406 357.59375 414.980469 C 355.957031 415.214844 354.800781 415.480469 354.121094 415.773438 C 353.441406 416.070313 352.921875 416.5 352.550781 417.066406 C 352.183594 417.632813 352 418.261719 352 418.953125 C 352 420.015625 352.398438 420.898438 353.203125 421.605469 C 354.007813 422.3125 355.183594 422.664063 356.734375 422.664063 C 358.269531 422.664063 359.632813 422.332031 360.828125 421.660156 C 362.019531 420.988281 362.898438 420.074219 363.460938 418.910156 C 363.886719 418.011719 364.101563 416.6875 364.101563 414.933594 Z M 364.4375 422.351563 C 362.960938 423.609375 361.539063 424.496094 360.175781 425.015625 C 358.808594 425.53125 357.34375 425.789063 355.78125 425.789063 C 353.199219 425.789063 351.214844 425.160156 349.828125 423.898438 C 348.441406 422.640625 347.75 421.027344 347.75 419.066406 C 347.75 417.917969 348.011719 416.867188 348.535156 415.914063 C 349.058594 414.964844 349.742188 414.203125 350.59375 413.625 C 351.441406 413.050781 352.394531 412.617188 353.457031 412.320313 C 354.238281 412.113281 355.421875 411.914063 357 411.722656 C 360.214844 411.339844 362.582031 410.882813 364.101563 410.351563 C 364.117188 409.804688 364.125 409.457031 364.125 409.308594 C 364.125 407.679688 363.746094 406.53125 362.996094 405.863281 C 361.980469 404.960938 360.46875 404.507813 358.464844 404.507813 C 356.59375 404.507813 355.210938 404.839844 354.320313 405.5 C 353.429688 406.160156 352.769531 407.332031 352.34375 409.007813 L 348.4375 408.476563 C 348.789063 406.808594 349.371094 405.460938 350.183594 404.433594 C 350.996094 403.40625 352.167969 402.613281 353.699219 402.058594 C 355.234375 401.503906 357.011719 401.226563 359.03125 401.226563 C 361.039063 401.226563 362.667969 401.464844 363.921875 401.9375 C 365.175781 402.410156 366.097656 403.003906 366.6875 403.71875 C 367.273438 404.4375 367.6875 405.339844 367.925781 406.433594 C 368.058594 407.113281 368.125 408.335938 368.125 410.105469 L 368.125 415.414063 C 368.125 419.113281 368.207031 421.453125 368.375 422.4375 C 368.542969 423.417969 368.878906 424.359375 369.375 425.257813 L 365.21875 425.257813 C 364.8125 424.429688 364.550781 423.460938 364.4375 422.351563 "/>
<path style=" stroke:none;fill-rule:nonzero;fill:rgb(13.699341%,12.199402%,12.5%);fill-opacity:1;" d="M 373.8125 425.257813 L 373.8125 401.757813 L 377.375 401.757813 L 377.375 405.332031 C 378.292969 403.660156 379.140625 402.558594 379.917969 402.027344 C 380.695313 401.492188 381.550781 401.226563 382.484375 401.226563 C 383.832031 401.226563 385.203125 401.65625 386.59375 402.511719 L 385.199219 406.203125 C 384.222656 405.636719 383.25 405.351563 382.277344 405.351563 C 381.40625 405.351563 380.625 405.613281 379.929688 406.136719 C 379.238281 406.660156 378.742188 407.386719 378.445313 408.316406 C 378.003906 409.730469 377.78125 411.28125 377.78125 412.960938 L 377.78125 425.257813 L 373.8125 425.257813 "/>
<path style=" stroke:none;fill-rule:nonzero;fill:rgb(13.699341%,12.199402%,12.5%);fill-opacity:1;" d="M 388.523438 425.257813 L 388.523438 392.820313 L 392.492188 392.820313 L 392.492188 411.332031 L 401.921875 401.757813 L 407.074219 401.757813 L 398.109375 410.488281 L 407.980469 425.257813 L 403.070313 425.257813 L 395.296875 413.226563 L 392.492188 415.957031 L 392.492188 425.257813 L 388.523438 425.257813 "/>
<path style=" stroke:none;fill-rule:nonzero;fill:rgb(13.699341%,12.199402%,12.5%);fill-opacity:1;" d="M 413.6875 411.257813 L 426.8125 411.257813 C 426.636719 409.28125 426.136719 407.800781 425.308594 406.8125 C 424.039063 405.277344 422.394531 404.507813 420.371094 404.507813 C 418.542969 404.507813 417.003906 405.121094 415.757813 406.347656 C 414.511719 407.570313 413.820313 409.207031 413.6875 411.257813 Z M 426.769531 417.664063 L 430.898438 418.195313 C 430.25 420.601563 429.050781 422.46875 427.292969 423.796875 C 425.539063 425.125 423.296875 425.789063 420.570313 425.789063 C 417.132813 425.789063 414.40625 424.730469 412.394531 422.613281 C 410.382813 420.496094 409.375 417.527344 409.375 413.707031 C 409.375 409.753906 410.394531 406.6875 412.429688 404.503906 C 414.464844 402.320313 417.105469 401.226563 420.347656 401.226563 C 423.488281 401.226563 426.054688 402.296875 428.046875 404.441406 C 430.035156 406.582031 431.03125 409.59375 431.03125 413.476563 C 431.03125 413.714844 431.023438 414.066406 431.011719 414.539063 L 413.46875 414.539063 C 413.617188 417.117188 414.347656 419.085938 415.660156 420.457031 C 416.972656 421.824219 418.609375 422.507813 420.574219 422.507813 C 422.03125 422.507813 423.28125 422.125 424.3125 421.355469 C 425.34375 420.582031 426.164063 419.355469 426.769531 417.664063 "/>
<path style=" stroke:none;fill-rule:nonzero;fill:rgb(13.699341%,12.199402%,12.5%);fill-opacity:1;" d="M 444.160156 421.699219 L 444.722656 425.21875 C 443.601563 425.453125 442.597656 425.570313 441.714844 425.570313 C 440.269531 425.570313 439.152344 425.34375 438.355469 424.886719 C 437.5625 424.429688 437 423.828125 436.675781 423.082031 C 436.351563 422.335938 436.191406 420.769531 436.191406 418.378906 L 436.191406 404.851563 L 433.253906 404.851563 L 433.253906 401.757813 L 436.191406 401.757813 L 436.191406 395.941406 L 440.160156 393.550781 L 440.160156 401.757813 L 444.160156 401.757813 L 444.160156 404.851563 L 440.160156 404.851563 L 440.160156 418.597656 C 440.160156 419.734375 440.230469 420.464844 440.367188 420.789063 C 440.507813 421.113281 440.738281 421.371094 441.054688 421.566406 C 441.371094 421.757813 441.824219 421.851563 442.414063 421.851563 C 442.855469 421.851563 443.4375 421.800781 444.160156 421.699219 "/>
<path style=" stroke:none;fill-rule:nonzero;fill:rgb(13.699341%,12.199402%,12.5%);fill-opacity:1;" d="M 447.609375 425.257813 L 447.609375 401.757813 L 451.578125 401.757813 L 451.578125 425.257813 Z M 447.609375 397.414063 L 447.609375 392.820313 L 451.578125 392.820313 L 451.578125 397.414063 L 447.609375 397.414063 "/>
<path style=" stroke:none;fill-rule:nonzero;fill:rgb(13.699341%,12.199402%,12.5%);fill-opacity:1;" d="M 457.226563 425.257813 L 457.226563 401.757813 L 460.785156 401.757813 L 460.785156 405.101563 C 462.511719 402.519531 465.003906 401.226563 468.261719 401.226563 C 469.675781 401.226563 470.976563 401.484375 472.164063 401.992188 C 473.351563 402.5 474.238281 403.167969 474.828125 403.992188 C 475.417969 404.820313 475.828125 405.800781 476.066406 406.9375 C 476.214844 407.675781 476.285156 408.964844 476.285156 410.808594 L 476.285156 425.257813 L 472.320313 425.257813 L 472.320313 410.953125 C 472.320313 409.332031 472.164063 408.117188 471.855469 407.3125 C 471.546875 406.507813 470.996094 405.863281 470.207031 405.386719 C 469.417969 404.90625 468.492188 404.664063 467.429688 404.664063 C 465.734375 404.664063 464.269531 405.203125 463.039063 406.28125 C 461.808594 407.359375 461.195313 409.402344 461.195313 412.414063 L 461.195313 425.257813 L 457.226563 425.257813 "/>
<g clip-path="url(#clip1)" clip-rule="nonzero">
<path style=" stroke:none;fill-rule:nonzero;fill:rgb(13.699341%,12.199402%,12.5%);fill-opacity:1;" d="M 484.546875 413.074219 C 484.546875 416.15625 485.15625 418.40625 486.382813 419.824219 C 487.605469 421.238281 489.144531 421.945313 490.988281 421.945313 C 492.816406 421.945313 494.351563 421.242188 495.59375 419.832031 C 496.832031 418.425781 497.453125 416.214844 497.453125 413.207031 C 497.453125 410.328125 496.8125 408.160156 495.535156 406.699219 C 494.261719 405.238281 492.722656 404.507813 490.921875 404.507813 C 489.148438 404.507813 487.644531 405.226563 486.40625 406.667969 C 485.164063 408.105469 484.546875 410.242188 484.546875 413.074219 Z M 481.234375 427.195313 L 485.109375 427.757813 C 485.269531 428.953125 485.71875 429.824219 486.457031 430.371094 C 487.445313 431.109375 488.796875 431.476563 490.511719 431.476563 C 492.355469 431.476563 493.777344 431.109375 494.78125 430.375 C 495.785156 429.640625 496.464844 428.613281 496.820313 427.289063 C 497.027344 426.480469 497.121094 424.785156 497.105469 422.195313 C 495.367188 424.238281 493.199219 425.257813 490.605469 425.257813 C 487.375 425.257813 484.875 424.09375 483.105469 421.761719 C 481.335938 419.433594 480.453125 416.636719 480.453125 413.375 C 480.453125 411.132813 480.855469 409.066406 481.667969 407.167969 C 482.480469 405.273438 483.65625 403.808594 485.195313 402.777344 C 486.738281 401.746094 488.546875 401.226563 490.625 401.226563 C 493.398438 401.226563 495.683594 402.351563 497.480469 404.601563 L 497.480469 401.757813 L 501.171875 401.757813 L 501.171875 422.070313 C 501.171875 425.726563 500.796875 428.320313 500.050781 429.847656 C 499.304688 431.371094 498.125 432.578125 496.507813 433.460938 C 494.890625 434.347656 492.898438 434.789063 490.535156 434.789063 C 487.730469 434.789063 485.464844 434.160156 483.734375 432.898438 C 482.007813 431.636719 481.175781 429.734375 481.234375 427.195313 "/>
</g>
<path style=" stroke:none;fill-rule:nonzero;fill:rgb(13.699341%,12.199402%,12.5%);fill-opacity:1;" d="M 542.519531 413.863281 L 546.804688 414.945313 C 545.902344 418.472656 544.28125 421.160156 541.945313 423.011719 C 539.605469 424.863281 536.746094 425.789063 533.367188 425.789063 C 529.871094 425.789063 527.027344 425.078125 524.835938 423.65625 C 522.644531 422.234375 520.976563 420.171875 519.828125 417.472656 C 518.6875 414.777344 518.113281 411.878906 518.113281 408.78125 C 518.113281 405.40625 518.761719 402.460938 520.050781 399.945313 C 521.34375 397.429688 523.179688 395.523438 525.5625 394.214844 C 527.945313 392.910156 530.566406 392.257813 533.429688 392.257813 C 536.675781 392.257813 539.402344 393.085938 541.613281 394.738281 C 543.828125 396.390625 545.371094 398.714844 546.238281 401.710938 L 542.019531 402.707031 C 541.269531 400.351563 540.179688 398.632813 538.746094 397.558594 C 537.316406 396.484375 535.519531 395.945313 533.351563 395.945313 C 530.855469 395.945313 528.773438 396.542969 527.101563 397.734375 C 525.425781 398.929688 524.25 400.53125 523.570313 402.539063 C 522.890625 404.550781 522.554688 406.625 522.554688 408.757813 C 522.554688 411.515625 522.953125 413.917969 523.761719 415.972656 C 524.5625 418.027344 525.816406 419.5625 527.511719 420.578125 C 529.210938 421.59375 531.046875 422.101563 533.023438 422.101563 C 535.429688 422.101563 537.46875 421.410156 539.136719 420.027344 C 540.804688 418.640625 541.933594 416.585938 542.519531 413.863281 "/>
<path style=" stroke:none;fill-rule:nonzero;fill:rgb(13.699341%,12.199402%,12.5%);fill-opacity:1;" d="M 553.734375 413.496094 C 553.734375 416.507813 554.390625 418.765625 555.699219 420.261719 C 557.011719 421.761719 558.660156 422.507813 560.648438 422.507813 C 562.625 422.507813 564.269531 421.757813 565.578125 420.25 C 566.890625 418.746094 567.546875 416.449219 567.546875 413.363281 C 567.546875 410.457031 566.886719 408.253906 565.570313 406.757813 C 564.25 405.257813 562.609375 404.507813 560.648438 404.507813 C 558.660156 404.507813 557.011719 405.253906 555.699219 406.746094 C 554.390625 408.234375 553.734375 410.488281 553.734375 413.496094 Z M 549.640625 413.507813 C 549.640625 409.15625 550.847656 405.933594 553.265625 403.839844 C 555.285156 402.097656 557.746094 401.226563 560.648438 401.226563 C 563.878906 401.226563 566.519531 402.285156 568.566406 404.402344 C 570.613281 406.519531 571.640625 409.445313 571.640625 413.175781 C 571.640625 416.203125 571.1875 418.582031 570.277344 420.3125 C 569.375 422.046875 568.054688 423.394531 566.324219 424.351563 C 564.589844 425.3125 562.699219 425.789063 560.648438 425.789063 C 557.363281 425.789063 554.707031 424.734375 552.679688 422.625 C 550.652344 420.515625 549.640625 417.476563 549.640625 413.507813 "/>
<path style=" stroke:none;fill-rule:nonzero;fill:rgb(13.699341%,12.199402%,12.5%);fill-opacity:1;" d="M 575.878906 425.257813 L 575.878906 401.757813 L 579.441406 401.757813 L 579.441406 405.042969 C 580.179688 403.894531 581.15625 402.972656 582.382813 402.273438 C 583.605469 401.578125 585 401.226563 586.5625 401.226563 C 588.304688 401.226563 589.730469 401.589844 590.84375 402.308594 C 591.957031 403.027344 592.742188 404.035156 593.199219 405.328125 C 595.058594 402.59375 597.480469 401.226563 600.460938 401.226563 C 602.792969 401.226563 604.585938 401.871094 605.839844 403.164063 C 607.09375 404.457031 607.722656 406.441406 607.722656 409.128906 L 607.722656 425.257813 L 603.753906 425.257813 L 603.753906 410.445313 C 603.753906 408.851563 603.625 407.703125 603.367188 407 C 603.109375 406.300781 602.640625 405.734375 601.960938 405.308594 C 601.28125 404.878906 600.484375 404.664063 599.570313 404.664063 C 597.917969 404.664063 596.546875 405.214844 595.453125 406.316406 C 594.359375 407.414063 593.816406 409.175781 593.816406 411.597656 L 593.816406 425.257813 L 589.847656 425.257813 L 589.847656 409.980469 C 589.847656 408.207031 589.519531 406.878906 588.871094 405.992188 C 588.222656 405.109375 587.15625 404.664063 585.679688 404.664063 C 584.554688 404.664063 583.515625 404.960938 582.5625 405.550781 C 581.609375 406.140625 580.917969 407.003906 580.488281 408.140625 C 580.0625 409.277344 579.847656 410.917969 579.847656 413.058594 L 579.847656 425.257813 L 575.878906 425.257813 "/>
<path style=" stroke:none;fill-rule:nonzero;fill:rgb(13.699341%,12.199402%,12.5%);fill-opacity:1;" d="M 613.179688 425.257813 L 613.179688 401.757813 L 616.738281 401.757813 L 616.738281 405.042969 C 617.476563 403.894531 618.457031 402.972656 619.683594 402.273438 C 620.902344 401.578125 622.300781 401.226563 623.859375 401.226563 C 625.601563 401.226563 627.027344 401.589844 628.140625 402.308594 C 629.253906 403.027344 630.039063 404.035156 630.496094 405.328125 C 632.355469 402.59375 634.777344 401.226563 637.757813 401.226563 C 640.089844 401.226563 641.882813 401.871094 643.136719 403.164063 C 644.394531 404.457031 645.019531 406.441406 645.019531 409.128906 L 645.019531 425.257813 L 641.054688 425.257813 L 641.054688 410.445313 C 641.054688 408.851563 640.921875 407.703125 640.664063 407 C 640.40625 406.300781 639.9375 405.734375 639.257813 405.308594 C 638.578125 404.878906 637.78125 404.664063 636.867188 404.664063 C 635.214844 404.664063 633.84375 405.214844 632.75 406.316406 C 631.660156 407.414063 631.113281 409.175781 631.113281 411.597656 L 631.113281 425.257813 L 627.144531 425.257813 L 627.144531 409.980469 C 627.144531 408.207031 626.820313 406.878906 626.171875 405.992188 C 625.519531 405.109375 624.453125 404.664063 622.976563 404.664063 C 621.851563 404.664063 620.816406 404.960938 619.859375 405.550781 C 618.90625 406.140625 618.21875 407.003906 617.789063 408.140625 C 617.359375 409.277344 617.144531 410.917969 617.144531 413.058594 L 617.144531 425.257813 L 613.179688 425.257813 "/>
<path style=" stroke:none;fill-rule:nonzero;fill:rgb(13.699341%,12.199402%,12.5%);fill-opacity:1;" d="M 665.863281 425.257813 L 665.863281 421.800781 C 664.035156 424.460938 661.554688 425.789063 658.414063 425.789063 C 657.03125 425.789063 655.738281 425.523438 654.535156 424.992188 C 653.335938 424.460938 652.445313 423.796875 651.863281 422.992188 C 651.28125 422.1875 650.871094 421.203125 650.636719 420.035156 C 650.476563 419.253906 650.394531 418.015625 650.394531 416.320313 L 650.394531 401.757813 L 654.363281 401.757813 L 654.363281 414.789063 C 654.363281 416.867188 654.445313 418.269531 654.605469 418.992188 C 654.855469 420.039063 655.386719 420.859375 656.199219 421.457031 C 657.011719 422.054688 658.015625 422.351563 659.210938 422.351563 C 660.40625 422.351563 661.527344 422.046875 662.578125 421.433594 C 663.625 420.824219 664.367188 419.988281 664.804688 418.933594 C 665.238281 417.882813 665.457031 416.351563 665.457031 414.34375 L 665.457031 401.757813 L 669.425781 401.757813 L 669.425781 425.257813 L 665.863281 425.257813 "/>
<path style=" stroke:none;fill-rule:nonzero;fill:rgb(13.699341%,12.199402%,12.5%);fill-opacity:1;" d="M 675.238281 425.257813 L 675.238281 401.757813 L 678.800781 401.757813 L 678.800781 405.101563 C 680.527344 402.519531 683.015625 401.226563 686.273438 401.226563 C 687.691406 401.226563 688.988281 401.484375 690.179688 401.992188 C 691.363281 402.5 692.25 403.167969 692.839844 403.992188 C 693.433594 404.820313 693.84375 405.800781 694.078125 406.9375 C 694.226563 407.675781 694.300781 408.964844 694.300781 410.808594 L 694.300781 425.257813 L 690.332031 425.257813 L 690.332031 410.953125 C 690.332031 409.332031 690.179688 408.117188 689.867188 407.3125 C 689.558594 406.507813 689.007813 405.863281 688.21875 405.386719 C 687.433594 404.90625 686.507813 404.664063 685.445313 404.664063 C 683.75 404.664063 682.285156 405.203125 681.054688 406.28125 C 679.824219 407.359375 679.207031 409.402344 679.207031 412.414063 L 679.207031 425.257813 L 675.238281 425.257813 "/>
<path style=" stroke:none;fill-rule:nonzero;fill:rgb(13.699341%,12.199402%,12.5%);fill-opacity:1;" d="M 699.988281 425.257813 L 699.988281 401.757813 L 703.957031 401.757813 L 703.957031 425.257813 Z M 699.988281 397.414063 L 699.988281 392.820313 L 703.957031 392.820313 L 703.957031 397.414063 L 699.988281 397.414063 "/>
<path style=" stroke:none;fill-rule:nonzero;fill:rgb(13.699341%,12.199402%,12.5%);fill-opacity:1;" d="M 724.949219 416.664063 L 728.855469 417.195313 C 728.429688 419.886719 727.332031 421.988281 725.570313 423.507813 C 723.808594 425.03125 721.640625 425.789063 719.074219 425.789063 C 715.859375 425.789063 713.273438 424.738281 711.316406 422.636719 C 709.363281 420.535156 708.386719 417.523438 708.386719 413.597656 C 708.386719 411.058594 708.808594 408.839844 709.648438 406.9375 C 710.488281 405.035156 711.769531 403.605469 713.488281 402.65625 C 715.207031 401.703125 717.074219 401.226563 719.097656 401.226563 C 721.648438 401.226563 723.734375 401.875 725.359375 403.164063 C 726.980469 404.457031 728.023438 406.289063 728.480469 408.664063 L 724.605469 409.257813 C 724.234375 407.683594 723.582031 406.496094 722.644531 405.703125 C 721.710938 404.90625 720.578125 404.507813 719.25 404.507813 C 717.242188 404.507813 715.613281 405.226563 714.359375 406.664063 C 713.105469 408.101563 712.480469 410.375 712.480469 413.488281 C 712.480469 416.640625 713.085938 418.933594 714.296875 420.363281 C 715.507813 421.792969 717.085938 422.507813 719.035156 422.507813 C 720.601563 422.507813 721.90625 422.03125 722.953125 421.074219 C 724.003906 420.121094 724.667969 418.648438 724.949219 416.664063 "/>
<path style=" stroke:none;fill-rule:nonzero;fill:rgb(13.699341%,12.199402%,12.5%);fill-opacity:1;" d="M 746.777344 413.476563 C 745.335938 414.066406 743.167969 414.566406 740.277344 414.980469 C 738.644531 415.214844 737.484375 415.480469 736.808594 415.773438 C 736.128906 416.070313 735.605469 416.5 735.238281 417.066406 C 734.871094 417.632813 734.6875 418.261719 734.6875 418.953125 C 734.6875 420.015625 735.085938 420.898438 735.890625 421.605469 C 736.695313 422.3125 737.871094 422.664063 739.421875 422.664063 C 740.953125 422.664063 742.320313 422.332031 743.515625 421.660156 C 744.707031 420.988281 745.585938 420.074219 746.148438 418.910156 C 746.574219 418.011719 746.789063 416.6875 746.789063 414.933594 Z M 747.125 422.351563 C 745.644531 423.609375 744.226563 424.496094 742.859375 425.015625 C 741.496094 425.53125 740.03125 425.789063 738.46875 425.789063 C 735.886719 425.789063 733.902344 425.160156 732.515625 423.898438 C 731.128906 422.640625 730.4375 421.027344 730.4375 419.066406 C 730.4375 417.917969 730.699219 416.867188 731.222656 415.914063 C 731.746094 414.964844 732.433594 414.203125 733.277344 413.625 C 734.128906 413.050781 735.082031 412.617188 736.144531 412.320313 C 736.929688 412.113281 738.105469 411.914063 739.683594 411.722656 C 742.902344 411.339844 745.269531 410.882813 746.789063 410.351563 C 746.804688 409.804688 746.8125 409.457031 746.8125 409.308594 C 746.8125 407.679688 746.433594 406.53125 745.683594 405.863281 C 744.667969 404.960938 743.15625 404.507813 741.152344 404.507813 C 739.28125 404.507813 737.898438 404.839844 737.007813 405.5 C 736.117188 406.160156 735.457031 407.332031 735.027344 409.007813 L 731.125 408.476563 C 731.476563 406.808594 732.058594 405.460938 732.871094 404.433594 C 733.683594 403.40625 734.855469 402.613281 736.386719 402.058594 C 737.921875 401.503906 739.699219 401.226563 741.71875 401.226563 C 743.726563 401.226563 745.355469 401.464844 746.609375 401.9375 C 747.859375 402.410156 748.78125 403.003906 749.371094 403.71875 C 749.960938 404.4375 750.375 405.339844 750.609375 406.433594 C 750.746094 407.113281 750.8125 408.335938 750.8125 410.105469 L 750.8125 415.414063 C 750.8125 419.113281 750.894531 421.453125 751.0625 422.4375 C 751.230469 423.417969 751.5625 424.359375 752.0625 425.257813 L 747.902344 425.257813 C 747.5 424.429688 747.238281 423.460938 747.125 422.351563 "/>
<path style=" stroke:none;fill-rule:nonzero;fill:rgb(13.699341%,12.199402%,12.5%);fill-opacity:1;" d="M 765.25 421.699219 L 765.8125 425.21875 C 764.691406 425.453125 763.691406 425.570313 762.808594 425.570313 C 761.359375 425.570313 760.242188 425.34375 759.445313 424.886719 C 758.648438 424.429688 758.089844 423.828125 757.765625 423.082031 C 757.441406 422.335938 757.28125 420.769531 757.28125 418.378906 L 757.28125 404.851563 L 754.34375 404.851563 L 754.34375 401.757813 L 757.28125 401.757813 L 757.28125 395.941406 L 761.25 393.550781 L 761.25 401.757813 L 765.25 401.757813 L 765.25 404.851563 L 761.25 404.851563 L 761.25 418.597656 C 761.25 419.734375 761.320313 420.464844 761.460938 420.789063 C 761.597656 421.113281 761.828125 421.371094 762.144531 421.566406 C 762.460938 421.757813 762.914063 421.851563 763.503906 421.851563 C 763.945313 421.851563 764.527344 421.800781 765.25 421.699219 "/>
<path style=" stroke:none;fill-rule:nonzero;fill:rgb(13.699341%,12.199402%,12.5%);fill-opacity:1;" d="M 768.699219 425.257813 L 768.699219 401.757813 L 772.667969 401.757813 L 772.667969 425.257813 Z M 768.699219 397.414063 L 768.699219 392.820313 L 772.667969 392.820313 L 772.667969 397.414063 L 768.699219 397.414063 "/>
<path style=" stroke:none;fill-rule:nonzero;fill:rgb(13.699341%,12.199402%,12.5%);fill-opacity:1;" d="M 780.90625 413.496094 C 780.90625 416.507813 781.5625 418.765625 782.875 420.261719 C 784.1875 421.761719 785.835938 422.507813 787.824219 422.507813 C 789.800781 422.507813 791.441406 421.757813 792.753906 420.25 C 794.066406 418.746094 794.722656 416.449219 794.722656 413.363281 C 794.722656 410.457031 794.0625 408.253906 792.742188 406.757813 C 791.425781 405.257813 789.785156 404.507813 787.824219 404.507813 C 785.835938 404.507813 784.1875 405.253906 782.875 406.746094 C 781.5625 408.234375 780.90625 410.488281 780.90625 413.496094 Z M 776.816406 413.507813 C 776.816406 409.15625 778.023438 405.933594 780.441406 403.839844 C 782.460938 402.097656 784.921875 401.226563 787.824219 401.226563 C 791.054688 401.226563 793.691406 402.285156 795.742188 404.402344 C 797.789063 406.519531 798.816406 409.445313 798.816406 413.175781 C 798.816406 416.203125 798.359375 418.582031 797.453125 420.3125 C 796.550781 422.046875 795.230469 423.394531 793.496094 424.351563 C 791.765625 425.3125 789.875 425.789063 787.824219 425.789063 C 784.539063 425.789063 781.882813 424.734375 779.855469 422.625 C 777.828125 420.515625 776.816406 417.476563 776.816406 413.507813 "/>
<path style=" stroke:none;fill-rule:nonzero;fill:rgb(13.699341%,12.199402%,12.5%);fill-opacity:1;" d="M 803.066406 425.257813 L 803.066406 401.757813 L 806.628906 401.757813 L 806.628906 405.101563 C 808.351563 402.519531 810.84375 401.226563 814.101563 401.226563 C 815.515625 401.226563 816.816406 401.484375 818.003906 401.992188 C 819.191406 402.5 820.078125 403.167969 820.667969 403.992188 C 821.257813 404.820313 821.671875 405.800781 821.90625 406.9375 C 822.054688 407.675781 822.128906 408.964844 822.128906 410.808594 L 822.128906 425.257813 L 818.15625 425.257813 L 818.15625 410.953125 C 818.15625 409.332031 818.003906 408.117188 817.695313 407.3125 C 817.382813 406.507813 816.835938 405.863281 816.046875 405.386719 C 815.257813 404.90625 814.332031 404.664063 813.269531 404.664063 C 811.574219 404.664063 810.109375 405.203125 808.878906 406.28125 C 807.648438 407.359375 807.03125 409.402344 807.03125 412.414063 L 807.03125 425.257813 L 803.066406 425.257813 "/>
<path style=" stroke:none;fill-rule:nonzero;fill:rgb(13.699341%,12.199402%,12.5%);fill-opacity:1;" d="M 826.222656 418.257813 L 830.160156 417.632813 C 830.382813 419.207031 830.996094 420.414063 832.007813 421.25 C 833.019531 422.089844 834.4375 422.507813 836.253906 422.507813 C 838.085938 422.507813 839.441406 422.136719 840.328125 421.394531 C 841.214844 420.648438 841.660156 419.777344 841.660156 418.773438 C 841.660156 417.875 841.265625 417.167969 840.484375 416.652344 C 839.9375 416.300781 838.574219 415.851563 836.402344 415.304688 C 833.472656 414.566406 831.445313 413.929688 830.316406 413.390625 C 829.1875 412.851563 828.332031 412.105469 827.75 411.15625 C 827.171875 410.203125 826.878906 409.152344 826.878906 408 C 826.878906 406.953125 827.117188 405.984375 827.597656 405.089844 C 828.078125 404.199219 828.734375 403.457031 829.558594 402.867188 C 830.183594 402.410156 831.027344 402.019531 832.097656 401.703125 C 833.171875 401.386719 834.320313 401.226563 835.546875 401.226563 C 837.394531 401.226563 839.015625 401.492188 840.410156 402.023438 C 841.808594 402.554688 842.839844 403.273438 843.503906 404.183594 C 844.171875 405.089844 844.625 406.300781 844.878906 407.820313 L 840.972656 408.351563 C 840.796875 407.144531 840.28125 406.203125 839.429688 405.523438 C 838.578125 404.847656 837.378906 404.507813 835.824219 404.507813 C 833.988281 404.507813 832.683594 404.8125 831.898438 405.414063 C 831.113281 406.019531 830.722656 406.726563 830.722656 407.535156 C 830.722656 408.050781 830.882813 408.515625 831.210938 408.929688 C 831.535156 409.355469 832.046875 409.710938 832.742188 409.988281 C 833.140625 410.136719 834.316406 410.476563 836.269531 411.003906 C 839.09375 411.757813 841.0625 412.375 842.179688 412.855469 C 843.292969 413.332031 844.164063 414.03125 844.800781 414.945313 C 845.4375 415.859375 845.753906 416.996094 845.753906 418.355469 C 845.753906 419.683594 845.363281 420.933594 844.589844 422.105469 C 843.816406 423.277344 842.695313 424.1875 841.234375 424.828125 C 839.773438 425.46875 838.121094 425.789063 836.277344 425.789063 C 833.21875 425.789063 830.890625 425.15625 829.289063 423.890625 C 827.6875 422.625 826.664063 420.746094 826.222656 418.257813 "/>
<path style=" stroke:none;fill-rule:nonzero;fill:rgb(100%,100%,100%);fill-opacity:1;" d="M 159.953125 313.125 L 169.203125 316 C 167.785156 321.179688 165.429688 325.027344 162.136719 327.539063 C 158.839844 330.054688 154.65625 331.3125 149.59375 331.3125 C 143.324219 331.3125 138.167969 329.167969 134.132813 324.878906 C 130.097656 320.59375 128.078125 314.730469 128.078125 307.292969 C 128.078125 299.425781 130.105469 293.316406 134.164063 288.964844 C 138.226563 284.613281 143.5625 282.4375 150.175781 282.4375 C 155.949219 282.4375 160.640625 284.144531 164.25 287.554688 C 166.394531 289.574219 168.003906 292.472656 169.078125 296.25 L 159.640625 298.5 C 159.082031 296.046875 157.917969 294.113281 156.144531 292.691406 C 154.375 291.273438 152.21875 290.5625 149.683594 290.5625 C 146.183594 290.5625 143.34375 291.820313 141.160156 294.339844 C 138.980469 296.859375 137.890625 300.941406 137.890625 306.582031 C 137.890625 312.570313 138.964844 316.835938 141.113281 319.375 C 143.257813 321.914063 146.050781 323.1875 149.484375 323.1875 C 152.019531 323.1875 154.199219 322.378906 156.023438 320.761719 C 157.851563 319.144531 159.160156 316.597656 159.953125 313.125 "/>
<path style=" stroke:none;fill-rule:nonzero;fill:rgb(100%,100%,100%);fill-opacity:1;" d="M 214.910156 306.871094 C 214.910156 312.246094 216.148438 316.320313 218.621094 319.089844 C 221.097656 321.863281 224.242188 323.25 228.054688 323.25 C 231.863281 323.25 234.988281 321.875 237.433594 319.121094 C 239.875 316.371094 241.097656 312.246094 241.097656 306.742188 C 241.097656 301.308594 239.90625 297.25 237.527344 294.574219 C 235.148438 291.898438 231.992188 290.5625 228.054688 290.5625 C 224.113281 290.5625 220.9375 291.914063 218.527344 294.621094 C 216.113281 297.332031 214.910156 301.414063 214.910156 306.871094 Z M 205.097656 307.195313 C 205.097656 302.375 205.816406 298.332031 207.257813 295.058594 C 208.328125 292.648438 209.796875 290.484375 211.652344 288.570313 C 213.511719 286.65625 215.546875 285.234375 217.757813 284.308594 C 220.699219 283.0625 224.09375 282.4375 227.9375 282.4375 C 234.898438 282.4375 240.464844 284.601563 244.644531 288.925781 C 248.820313 293.25 250.910156 299.265625 250.910156 306.96875 C 250.910156 314.609375 248.835938 320.589844 244.691406 324.902344 C 240.546875 329.21875 235.003906 331.375 228.066406 331.375 C 221.046875 331.375 215.460938 329.226563 211.316406 324.933594 C 207.171875 320.640625 205.097656 314.730469 205.097656 307.195313 "/>
<path style=" stroke:none;fill-rule:nonzero;fill:rgb(100%,100%,100%);fill-opacity:1;" d="M 287.847656 330.5 L 287.847656 283.3125 L 302.101563 283.3125 L 310.628906 315.5 L 319.066406 283.3125 L 333.347656 283.3125 L 333.347656 330.5 L 324.535156 330.5 L 324.503906 293.355469 L 315.167969 330.5 L 305.980469 330.5 L 296.691406 293.355469 L 296.660156 330.5 L 287.847656 330.5 "/>
<path style=" stroke:none;fill-rule:nonzero;fill:rgb(100%,100%,100%);fill-opacity:1;" d="M 382.046875 291.3125 L 382.046875 304.6875 L 387.285156 304.6875 C 391.054688 304.6875 393.578125 304.441406 394.847656 303.949219 C 396.121094 303.457031 397.117188 302.683594 397.839844 301.632813 C 398.5625 300.582031 398.921875 299.359375 398.921875 297.96875 C 398.921875 296.253906 398.414063 294.839844 397.402344 293.722656 C 396.386719 292.609375 395.105469 291.914063 393.554688 291.632813 C 392.414063 291.417969 390.117188 291.3125 386.671875 291.3125 Z M 372.546875 330.5 L 372.546875 283.3125 L 387.851563 283.3125 C 393.652344 283.3125 397.433594 283.546875 399.195313 284.019531 C 401.902344 284.726563 404.167969 286.265625 405.996094 288.636719 C 407.820313 291.007813 408.734375 294.070313 408.734375 297.824219 C 408.734375 300.71875 408.207031 303.152344 407.152344 305.125 C 406.097656 307.101563 404.757813 308.648438 403.136719 309.777344 C 401.511719 310.902344 399.859375 311.648438 398.183594 312.011719 C 395.902344 312.460938 392.597656 312.6875 388.273438 312.6875 L 382.046875 312.6875 L 382.046875 330.5 L 372.546875 330.5 "/>
<path style=" stroke:none;fill-rule:nonzero;fill:rgb(100%,100%,100%);fill-opacity:1;" d="M 466.332031 311.75 L 459.816406 294.3125 L 453.476563 311.75 Z M 483.847656 330.5 L 473.476563 330.5 L 469.351563 319.75 L 450.570313 319.75 L 446.664063 330.5 L 436.472656 330.5 L 454.753906 283.3125 L 465.03125 283.3125 L 483.847656 330.5 "/>
<path style=" stroke:none;fill-rule:nonzero;fill:rgb(100%,100%,100%);fill-opacity:1;" d="M 518.554688 330.5 L 518.554688 283.3125 L 527.785156 283.3125 L 547.304688 315.03125 L 547.304688 283.3125 L 556.113281 283.3125 L 556.113281 330.5 L 546.585938 330.5 L 527.363281 299.496094 L 527.363281 330.5 L 518.554688 330.5 "/>
<path style=" stroke:none;fill-rule:nonzero;fill:rgb(100%,100%,100%);fill-opacity:1;" d="M 608.195313 330.5 L 608.195313 310.640625 L 590.914063 283.3125 L 602.144531 283.3125 L 613.191406 302.007813 L 624.011719 283.3125 L 634.976563 283.3125 L 617.695313 310.703125 L 617.695313 330.5 L 608.195313 330.5 "/>
<g clip-path="url(#clip2)" clip-rule="nonzero">
<path style=" stroke:none;fill-rule:nonzero;fill:rgb(63.528442%,58.430481%,54.116821%);fill-opacity:1;" d="M 835.59375 330.503906 L 835.484375 330.554688 C 821.578125 337.011719 796.894531 339.898438 778.597656 339.898438 C 767.273438 339.898438 710.796875 338.328125 710.796875 307.328125 C 710.796875 295.734375 717.347656 287.6875 732.542969 280.523438 C 734.355469 280.640625 786.023438 283.984375 786.023438 283.984375 L 808.371094 284.425781 C 838.027344 285.175781 853.074219 292.882813 853.074219 307.328125 C 853.074219 318.539063 848.011719 325.253906 835.59375 330.503906 Z M 838.296875 336.890625 L 838.40625 336.84375 C 838.378906 336.855469 838.308594 336.886719 838.296875 336.890625 Z M 774.144531 87.53125 C 800.421875 87.53125 821.003906 107.4375 821.003906 132.847656 C 821.003906 160.910156 802.609375 179.042969 774.144531 179.042969 C 744.960938 179.042969 726.835938 161.511719 726.835938 133.285156 C 726.835938 106.773438 746.730469 87.53125 774.144531 87.53125 Z M 856.433594 253.542969 C 840.039063 247.476563 815.488281 246.488281 795.761719 245.691406 L 788.996094 245.410156 C 788.9375 245.410156 779.050781 245.21875 779.050781 245.21875 C 764.707031 244.992188 748.457031 244.734375 736.234375 241.992188 C 726.613281 239.386719 721.933594 234.308594 721.933594 226.460938 C 721.933594 217.363281 733.445313 209.269531 742.519531 209.269531 C 744.773438 209.269531 748.621094 209.996094 751.714844 210.578125 C 751.714844 210.578125 756.40625 211.378906 756.65625 211.421875 C 762.316406 212.773438 767.875 212.789063 773.25 212.789063 C 796.574219 212.789063 817.164063 206.621094 832.785156 194.957031 C 851.808594 180.140625 863.128906 158.253906 863.128906 136.363281 C 863.128906 116.1875 855.25 95.941406 841.546875 80.457031 C 844.84375 62.636719 856.035156 59.402344 877.925781 59.402344 L 885.011719 59.402344 L 884.453125 24.941406 L 872.21875 24.339844 L 872.132813 24.339844 C 843.070313 24.339844 824.617188 30.636719 817.519531 61.644531 C 804.324219 56.226563 789.4375 53.347656 774.144531 53.347656 C 729.257813 53.347656 683.820313 80.652344 683.820313 132.847656 C 683.820313 156.035156 692.742188 175.554688 710.324219 190.960938 C 693.171875 199.636719 682.039063 210.496094 682.039063 231.734375 C 682.039063 248.785156 690.839844 259.042969 700.105469 266.070313 C 680.113281 275.050781 669.566406 290.855469 669.566406 312.164063 C 669.566406 335.351563 684.097656 353.976563 710.488281 364.601563 C 731.753906 372.710938 759.285156 373.644531 778.152344 373.644531 C 808.507813 373.644531 833.253906 369.921875 851.699219 362.574219 C 879.382813 351.554688 893.414063 332.523438 893.414063 306.011719 C 893.414063 282.625 878.898438 262.03125 856.433594 253.542969 "/>
</g>
</g>
</svg>
